# xmcd CD database file
#
# Track frame offsets:
#	150
#	19082
#	48127
#	73889
#	92783
#	111893
#	144508
#	160561
#	184972
#	207195
#	234849
#	263068
#
# Disc length: 3762 seconds
#
# Revision: 0
# Processed by: cddbd v1.5.2PL0 Copyright (c) Steve Scherf et al.
# Submitted via: CDex 1.51
#
DISCID=9d0eb00c
DTITLE=Julia Hulsmann Trio - Imprint
DYEAR=2011
DGENRE=Jazz
TTITLE0=Rond Point
TTITLE1=Grand Canyon
TTITLE2=A Light Left On
TTITLE3=Juni
TTITLE4=Storm In A Teacup
TTITLE5=(Go And Open) The Door
TTITLE6=Kauf dir einen bunten Luftballon
TTITLE7=Ritual
TTITLE8=Lulu_s Paradise
TTITLE9=Ulmenwall
TTITLE10=Zahlen bitte
TTITLE11=Who_s Next
EXTD=YEAR: 2011
EXTT0=
EXTT1=
EXTT2=
EXTT3=
EXTT4=
EXTT5=
EXTT6=
EXTT7=
EXTT8=
EXTT9=
EXTT10=
EXTT11=
PLAYORDER=
